<?xml version="1.0" encoding="UTF-8"?>
<svg id="Layer_2" data-name="Layer 2" xmlns="http://www.w3.org/2000/svg" viewBox="0 0 177.14 189.85">
  <defs>
    <style>
      .cls-1 {
        fill: #231f20;
        stroke-width: 0px;
      }
    </style>
  </defs>
  <g id="Layer_1-2" data-name="Layer 1">
    <g>
      <path class="cls-1" d="m145.38,47.69l-18.34,55.79h-16.1l21.92-58.03L88.57,0l-44.73,45.44,22.37,58.03h-15.66l-18.34-55.79L0,33.29v15.3l25.05,54.44.89,13.95h125.7l.45-13.5,25.05-55.34v-15.75l-31.76,15.3Zm-84.1,0l27.73-31.04,26.84,31.49-26.84,30.59-27.73-31.04Z"/>
      <polygon class="cls-1" points="25.98 118.66 83.57 118.66 85.14 125.85 85.14 148.35 72.32 149.47 79.29 177.14 67.59 177.14 55.56 150.15 38.35 149.92 38.35 177.14 25.98 177.14 25.98 139.13 73.67 139.35 73.89 128.55 25.98 128.33 25.98 118.66"/>
      <polygon class="cls-1" points="151.5 118.88 97.17 118.88 97.17 151.61 136.31 151.61 136.31 165.78 97.17 165.78 97.17 176.92 151.5 176.92 151.5 141.49 110 141.15 110 129 151.5 129 151.5 118.88"/>
      <rect class="cls-1" x="25.76" y="178.15" width="126.08" height="11.7"/>
    </g>
  </g>
</svg>